<svg width="48" height="48" viewBox="0 0 48 48" fill="none" xmlns="http://www.w3.org/2000/svg">
<path fill-rule="evenodd" clip-rule="evenodd" d="M1.24128 2.40096C1.08034 2.39542 0.919922 2.42234 0.769597 2.4801C0.619272 2.53786 0.48211 2.62528 0.366284 2.73717C0.250458 2.84905 0.158337 2.98311 0.0954088 3.13134C0.0324808 3.27958 3.35195e-05 3.43896 0 3.6L0 37.3392C3.83754e-05 37.5679 0.0654357 37.7919 0.188489 37.9846C0.311542 38.1774 0.487126 38.331 0.69456 38.4274L15.8942 45.4882C16.0561 45.5634 16.2327 45.6016 16.4112 45.6C16.5824 45.5986 16.7513 45.5607 16.9066 45.4886L31.6008 38.6626L46.295 45.4882C46.4779 45.573 46.6791 45.6104 46.8802 45.5969C47.0813 45.5834 47.2757 45.5195 47.4456 45.4111C47.6155 45.3027 47.7553 45.1532 47.8522 44.9765C47.9491 44.7998 47.9999 44.6015 48 44.4V12.9442C47.3122 14.0586 46.5077 15.0966 45.6 16.0406V42.5194L32.3146 36.348L32.2186 19.4803C31.7199 19.0653 31.2368 18.6319 30.7704 18.181L30.8746 36.3523L17.1101 42.7474L16.933 11.7365L24.433 8.25168C24.3274 7.34941 24.3698 6.43594 24.5587 5.54736L16.3997 9.33744L1.70544 2.51184C1.5597 2.44418 1.40186 2.40648 1.24128 2.40096V2.40096ZM2.4 5.48064L15.492 11.5622L15.6701 42.7382L2.4 36.5722V5.48064Z" fill="#0F4C81"/>
<path d="M33.5175 0C34.8096 0 36.0403 0.72048 37.1463 1.37136C38.2536 0.72048 39.4843 0 40.776 0C44.7528 0 48 3.2472 48 7.224V7.24032C47.9511 10.6037 45.2419 13.7203 42.7152 16.1789C40.1885 18.6365 37.681 20.3846 37.681 20.3846C37.4978 20.5124 37.2795 20.5802 37.0562 20.5787C36.8328 20.5773 36.6155 20.5066 36.4339 20.3765C36.4339 20.3765 34.0858 18.697 31.6627 16.2749C29.2392 13.8523 26.6266 10.7198 26.2992 7.32768C26.2959 7.29338 26.2941 7.25894 26.2939 7.22448C26.2935 3.2472 29.5407 0 33.5175 0Z" fill="#0F4C81"/>
</svg>
