<svg width="357" height="79" viewBox="0 0 357 79" fill="none" xmlns="http://www.w3.org/2000/svg">
<path fill-rule="evenodd" clip-rule="evenodd" d="M63.085 58.7202C62.8358 56.5933 62.5647 53.8761 62.3465 50.8122H65.4407C67.0976 50.8122 68.4407 49.469 68.4407 47.8122C68.4407 46.1553 67.0976 44.8122 65.4407 44.8122H62.021C61.9108 41.807 61.878 38.648 61.9744 35.5036H65.4407C67.0976 35.5036 68.4407 34.1604 68.4407 32.5036C68.4407 30.8467 67.0976 29.5036 65.4407 29.5036H62.3341C62.6424 26.1839 63.1423 23.0091 63.9002 20.195H65.4407C67.0976 20.195 68.4407 18.8518 68.4407 17.195C68.4407 15.807 67.4982 14.6392 66.2182 14.2967C66.3793 14.0156 66.546 13.7439 66.7183 13.4822C69.026 9.97748 72.0366 7.08299 75.4489 4.88637H83.7724C91.5044 4.88637 97.7724 11.1544 97.7724 18.8864V22.1977C97.2824 20.2166 95.9688 18.4819 93.9398 17.4548C89.8255 15.372 84.3084 16.9773 81.6369 21.0345C78.9654 25.0917 80.1384 30.0836 84.2527 32.1664C88.367 34.2492 93.8841 32.6439 96.5556 28.5867C97.1453 27.6911 97.5477 26.75 97.7724 25.8047V47.49C87.7754 53.5193 75.3629 58.805 68.6095 61.5168C66.018 62.5496 63.3607 61.2044 63.085 58.7202ZM97.7724 22.1977V25.8047C98.0638 24.5794 98.0567 23.3471 97.7724 22.1977ZM97.7724 47.49C103.819 43.8434 108.981 39.9248 111.474 36.139C119.499 23.9513 115.981 8.99737 103.627 2.74316C94.8218 -1.71422 83.9026 -0.555669 75.4489 4.88637H14C6.26801 4.88637 0 11.1544 0 18.8864V64.98C0 72.712 6.26801 78.98 14 78.98H83.7724C91.5044 78.98 97.7724 72.712 97.7724 64.98V47.49ZM66.2182 14.2967C65.9703 14.2303 65.7096 14.195 65.4407 14.195H10.6821C9.02527 14.195 7.68213 15.5381 7.68213 17.195C7.68213 18.8518 9.02527 20.195 10.6821 20.195H63.9002C64.5002 17.9671 65.2619 15.9653 66.2182 14.2967ZM62.3341 29.5036H10.6821C9.02527 29.5036 7.68213 30.8467 7.68213 32.5036C7.68213 34.1604 9.02527 35.5036 10.6821 35.5036H61.9744C62.0364 33.4826 62.1517 31.4677 62.3341 29.5036ZM62.021 44.8122H10.6821C9.02527 44.8122 7.68213 46.1553 7.68213 47.8122C7.68213 49.469 9.02527 50.8122 10.6821 50.8122H62.3465C62.2121 48.9248 62.0977 46.9058 62.021 44.8122ZM10.6821 60.1208C9.02527 60.1208 7.68213 61.4639 7.68213 63.1208C7.68213 64.7776 9.02527 66.1208 10.6821 66.1208H54.9651C56.6219 66.1208 57.9651 64.7776 57.9651 63.1208C57.9651 61.4639 56.6219 60.1208 54.9651 60.1208H10.6821ZM168.297 27.8594C169.297 28.2344 170.102 28.5703 170.711 28.8672V21.4141C169.695 21.0859 168.586 20.7734 167.383 20.4766C166.195 20.1797 164.961 19.9219 163.68 19.7031C162.398 19.4688 161.094 19.2891 159.766 19.1641C158.453 19.0391 157.172 18.9766 155.922 18.9766C154.781 18.9766 153.578 19.0234 152.312 19.1172C151.047 19.2109 149.797 19.3828 148.562 19.6328C147.328 19.8828 146.148 20.2344 145.023 20.6875C143.914 21.1406 142.93 21.7344 142.07 22.4688C141.227 23.1875 140.555 24.0625 140.055 25.0938C139.555 26.125 139.305 27.3516 139.305 28.7734C139.305 29.9766 139.539 31.0391 140.008 31.9609C140.477 32.8672 141.117 33.6719 141.93 34.375C142.742 35.0625 143.688 35.6641 144.766 36.1797C145.844 36.6797 146.984 37.125 148.188 37.5156C149.406 37.8906 150.656 38.2188 151.938 38.5C153.219 38.7812 154.461 39.0469 155.664 39.2969C156.883 39.5312 158.031 39.7734 159.109 40.0234C160.188 40.2578 161.133 40.5234 161.945 40.8203C162.758 41.1016 163.398 41.4375 163.867 41.8281C164.336 42.2031 164.57 42.6484 164.57 43.1641C164.57 43.4922 164.453 43.8359 164.219 44.1953C163.984 44.5547 163.539 44.8906 162.883 45.2031C162.227 45.5 161.312 45.75 160.141 45.9531C158.984 46.1406 157.484 46.2344 155.641 46.2344C152.516 46.2344 149.578 45.8984 146.828 45.2266C144.094 44.5547 141.656 43.625 139.516 42.4375V50.125C141.594 50.9062 143.984 51.5547 146.688 52.0703C149.406 52.6016 152.359 52.8672 155.547 52.8672C156.766 52.8672 158.047 52.8281 159.391 52.75C160.75 52.6719 162.086 52.5078 163.398 52.2578C164.727 52.0078 165.992 51.6562 167.195 51.2031C168.398 50.7344 169.453 50.1172 170.359 49.3516C171.281 48.5859 172.016 47.6484 172.562 46.5391C173.109 45.4297 173.383 44.1016 173.383 42.5547C173.383 41.3516 173.148 40.2812 172.68 39.3438C172.211 38.4062 171.57 37.5781 170.758 36.8594C169.945 36.1406 169 35.5156 167.922 34.9844C166.844 34.4375 165.695 33.9609 164.477 33.5547C163.273 33.1484 162.023 32.7969 160.727 32.5C159.445 32.1875 158.195 31.9063 156.977 31.6563C155.773 31.3906 154.633 31.1406 153.555 30.9063C152.477 30.6563 151.531 30.3984 150.719 30.1328C149.906 29.8516 149.266 29.5391 148.797 29.1953C148.328 28.8359 148.094 28.4219 148.094 27.9531C148.094 27.8125 148.117 27.6563 148.164 27.4844C148.227 27.3125 148.352 27.1406 148.539 26.9688C148.727 26.7969 148.992 26.6328 149.336 26.4766C149.695 26.3047 150.172 26.1563 150.766 26.0313C151.375 25.9063 152.117 25.8047 152.992 25.7266C153.883 25.6484 154.953 25.6094 156.203 25.6094C157.766 25.6094 159.289 25.7266 160.773 25.9609C162.258 26.1797 163.633 26.4609 164.898 26.8047C166.164 27.1328 167.297 27.4844 168.297 27.8594ZM213.719 51.0625C214.859 50.6875 215.992 50.2656 217.117 49.7969V41.9688C216.227 42.4688 215.289 42.9609 214.305 43.4453C213.32 43.9141 212.234 44.3359 211.047 44.7109C209.859 45.0859 208.555 45.3906 207.133 45.625C205.711 45.8438 204.109 45.9531 202.328 45.9531C200.5 45.9531 198.883 45.8281 197.477 45.5781C196.086 45.3125 194.867 44.9531 193.82 44.5C192.773 44.0469 191.898 43.5078 191.195 42.8828C190.492 42.2578 189.922 41.5781 189.484 40.8438C189.047 40.0938 188.734 39.3047 188.547 38.4766C188.359 37.6328 188.266 36.7812 188.266 35.9219C188.266 34.625 188.484 33.375 188.922 32.1719C189.359 30.9531 190.117 29.875 191.195 28.9375C192.273 28 193.711 27.25 195.508 26.6875C197.32 26.125 199.594 25.8438 202.328 25.8438C204.109 25.8438 205.711 25.9688 207.133 26.2188C208.555 26.4531 209.859 26.7656 211.047 27.1563C212.234 27.5313 213.32 27.9609 214.305 28.4453C215.289 28.9141 216.227 29.3906 217.117 29.875V22.0469C215.992 21.5781 214.859 21.1563 213.719 20.7813C212.578 20.4063 211.398 20.0859 210.18 19.8203C208.961 19.5391 207.672 19.3281 206.312 19.1875C204.969 19.0469 203.523 18.9766 201.977 18.9766C198.695 18.9766 195.672 19.3281 192.906 20.0313C190.156 20.7344 187.781 21.7969 185.781 23.2188C183.797 24.625 182.25 26.3906 181.141 28.5156C180.031 30.625 179.477 33.0938 179.477 35.9219C179.477 38.75 180.031 41.2266 181.141 43.3516C182.25 45.4609 183.797 47.2266 185.781 48.6484C187.781 50.0547 190.156 51.1094 192.906 51.8125C195.672 52.5156 198.695 52.8672 201.977 52.8672C203.523 52.8672 204.969 52.7969 206.312 52.6562C207.672 52.5156 208.961 52.3047 210.18 52.0234C211.398 51.7578 212.578 51.4375 213.719 51.0625ZM253.82 26.7813C254.273 26.9063 254.617 27.0078 254.852 27.0859V19.7969C254.492 19.7031 254.07 19.6094 253.586 19.5156C253.102 19.4219 252.578 19.3359 252.016 19.2578C251.469 19.1797 250.898 19.1172 250.305 19.0703C249.727 19.0078 249.156 18.9766 248.594 18.9766C247.109 18.9766 245.703 19.1484 244.375 19.4922C243.047 19.8203 241.781 20.2656 240.578 20.8281C239.391 21.3906 238.242 22.0391 237.133 22.7734C236.039 23.4922 234.969 24.2422 233.922 25.0234V19.7969H225.227V52H233.922V32.6172C234.766 31.7734 235.688 30.9531 236.688 30.1563C237.703 29.3438 238.797 28.625 239.969 28C241.141 27.3594 242.398 26.8516 243.742 26.4766C245.102 26.0859 246.562 25.8906 248.125 25.8906C248.875 25.8906 249.602 25.9375 250.305 26.0313C251.023 26.125 251.68 26.2422 252.273 26.3828C252.867 26.5078 253.383 26.6406 253.82 26.7813ZM260.383 19.7969V52H269.078V19.7969H260.383ZM315.414 46.375C315.742 45.4531 315.906 44.3672 315.906 43.1172C315.906 41.8984 315.742 40.8359 315.414 39.9297C315.086 39.0078 314.57 38.2344 313.867 37.6094C313.164 36.9688 312.25 36.4688 311.125 36.1094C310.016 35.7344 308.68 35.4922 307.117 35.3828C309.336 34.9766 310.961 34.1641 311.992 32.9453C313.023 31.7109 313.539 30.0469 313.539 27.9531C313.539 26.7813 313.383 25.7656 313.07 24.9063C312.773 24.0469 312.352 23.3125 311.805 22.7031C311.273 22.0938 310.641 21.6016 309.906 21.2266C309.188 20.8516 308.406 20.5625 307.562 20.3594C306.719 20.1406 305.828 19.9922 304.891 19.9141C303.969 19.8359 303.047 19.7969 302.125 19.7969H279.18V52H302.547C303.75 52 304.914 51.9531 306.039 51.8594C307.164 51.7656 308.219 51.6016 309.203 51.3672C310.203 51.1172 311.109 50.7891 311.922 50.3828C312.75 49.9609 313.453 49.4219 314.031 48.7656C314.625 48.0938 315.086 47.2969 315.414 46.375ZM304.867 28.1875C304.992 28.5469 305.055 28.9297 305.055 29.3359C305.055 29.7422 304.992 30.1328 304.867 30.5078C304.742 30.8672 304.516 31.1797 304.188 31.4453C303.859 31.7109 303.414 31.9219 302.852 32.0781C302.289 32.2344 301.57 32.3125 300.695 32.3125H287.875V26.2656H300.695C301.57 26.2656 302.289 26.3516 302.852 26.5234C303.414 26.6953 303.859 26.9219 304.188 27.2031C304.516 27.4844 304.742 27.8125 304.867 28.1875ZM306.695 40.3516C306.945 40.7891 307.07 41.375 307.07 42.1094C307.07 42.8438 306.945 43.4375 306.695 43.8906C306.445 44.3281 306.055 44.6719 305.523 44.9219C304.992 45.1719 304.305 45.3359 303.461 45.4141C302.617 45.4922 301.609 45.5312 300.438 45.5312H287.875V38.7109H300.438C301.609 38.7109 302.617 38.75 303.461 38.8281C304.305 38.9062 304.992 39.0703 305.523 39.3203C306.055 39.5547 306.445 39.8984 306.695 40.3516ZM323.852 19.7969V52H356.781V45.1328H332.781V38.8516H355.234V31.9844H332.781V26.6641H356.453V19.7969H323.852Z" fill="#34B3F1"/>
</svg>
