<svg width="166" height="129" viewBox="0 0 166 129" fill="none" xmlns="http://www.w3.org/2000/svg">
<path fill-rule="evenodd" clip-rule="evenodd" d="M89.2737 82.9798C89.5862 87.9834 89.9744 92.4208 90.3312 95.8941C90.7259 99.951 94.531 102.148 98.2418 100.461C107.912 96.0326 125.685 87.4007 140 77.5544V114.98C140 122.712 133.732 128.98 126 128.98H14C6.26802 128.98 0 122.712 0 114.98V21.9798C0 14.2478 6.26801 7.97978 14 7.97978H108.035C103.149 11.567 98.8382 16.2939 95.5337 22.0174C94.6837 23.4897 93.9302 25.1552 93.264 26.9798H14C12.3431 26.9798 11 28.3229 11 29.9798C11 31.6366 12.3431 32.9798 14 32.9798H91.4985C90.1621 38.6392 89.3858 45.1919 88.9924 51.9798H14C12.3431 51.9798 11 53.3229 11 54.9798C11 56.6366 12.3431 57.9798 14 57.9798H88.741C88.5668 64.4594 88.6871 70.9768 88.953 76.9798H14C12.3431 76.9798 11 78.3229 11 79.9798C11 81.6366 12.3431 82.9798 14 82.9798H89.2737ZM89.2737 82.9798H95C96.6569 82.9798 98 81.6366 98 79.9798C98 78.3229 96.6569 76.9798 95 76.9798H88.953C89.0446 79.0484 89.1536 81.056 89.2737 82.9798ZM88.741 57.9798H95C96.6569 57.9798 98 56.6366 98 54.9798C98 53.3229 96.6569 51.9798 95 51.9798H88.9924C88.8773 53.9651 88.795 55.9706 88.741 57.9798ZM91.4985 32.9798H95C96.6569 32.9798 98 31.6366 98 29.9798C98 28.3229 96.6569 26.9798 95 26.9798H93.264C92.589 28.8284 92.0037 30.8402 91.4985 32.9798ZM140 36.2504V21.9798C140 14.2478 133.732 7.97978 126 7.97978H108.035C120.14 -0.907447 135.775 -2.79945 148.383 4.47978C166.073 14.6933 171.111 39.1141 159.62 59.0174C156.05 65.1999 148.658 71.5993 140 77.5544V42.1409C140.417 40.1399 140.407 38.1274 140 36.2504ZM140 36.2504V42.1409C139.678 43.6846 139.102 45.2216 138.258 46.6841C134.432 53.3098 126.532 55.9313 120.641 52.53C114.75 49.1287 113.07 40.9764 116.896 34.3508C120.721 27.7251 128.621 25.1036 134.512 28.5049C137.417 30.1822 139.298 33.015 140 36.2504ZM11 104.98C11 103.323 12.3431 101.98 14 101.98H80C81.6569 101.98 83 103.323 83 104.98C83 106.637 81.6569 107.98 80 107.98H14C12.3431 107.98 11 106.637 11 104.98Z" fill="#34B3F1"/>
</svg>
